<svg width="14" height="16" viewBox="0 0 14 16" fill="none" xmlns="http://www.w3.org/2000/svg">
<path d="M2 9.25V1.125M2 9.25C2.33152 9.25 2.64946 9.3817 2.88388 9.61612C3.1183 9.85054 3.25 10.1685 3.25 10.5C3.25 10.8315 3.1183 11.1495 2.88388 11.3839C2.64946 11.6183 2.33152 11.75 2 11.75M2 9.25C1.66848 9.25 1.35054 9.3817 1.11612 9.61612C0.881696 9.85054 0.75 10.1685 0.75 10.5C0.75 10.8315 0.881696 11.1495 1.11612 11.3839C1.35054 11.6183 1.66848 11.75 2 11.75M2 11.75V14.875M12 9.25V1.125M12 9.25C12.3315 9.25 12.6495 9.3817 12.8839 9.61612C13.1183 9.85054 13.25 10.1685 13.25 10.5C13.25 10.8315 13.1183 11.1495 12.8839 11.3839C12.6495 11.6183 12.3315 11.75 12 11.75M12 9.25C11.6685 9.25 11.3505 9.3817 11.1161 9.61612C10.8817 9.85054 10.75 10.1685 10.75 10.5C10.75 10.8315 10.8817 11.1495 11.1161 11.3839C11.3505 11.6183 11.6685 11.75 12 11.75M12 11.75V14.875M7 4.25V1.125M7 4.25C7.33152 4.25 7.64946 4.3817 7.88388 4.61612C8.1183 4.85054 8.25 5.16848 8.25 5.5C8.25 5.83152 8.1183 6.14946 7.88388 6.38388C7.64946 6.6183 7.33152 6.75 7 6.75M7 4.25C6.66848 4.25 6.35054 4.3817 6.11612 4.61612C5.8817 4.85054 5.75 5.16848 5.75 5.5C5.75 5.83152 5.8817 6.14946 6.11612 6.38388C6.35054 6.6183 6.66848 6.75 7 6.75M7 6.75V14.875" stroke="#FFA000" stroke-width="1.5" stroke-linecap="round" stroke-linejoin="round"/>
</svg>
