<svg width="40" height="40" viewBox="0 0 40 40" fill="none" xmlns="http://www.w3.org/2000/svg">
<g clip-path="url(#clip0_1_13579)">
<path d="M36.0611 3.36573L24.3942 0.032361C24.2125 -0.0197497 24.0186 -0.0085775 23.8442 0.0640025L3.84365 8.39757C3.53388 8.52719 3.33216 8.83008 3.332 9.16595V30.8331C3.332 31.2902 3.70006 31.6619 4.15702 31.6665C3.69677 31.6693 3.32598 32.0448 3.32887 32.505C3.33106 32.8631 3.56185 33.1798 3.90201 33.2916L23.9025 39.9584C23.9876 39.9859 24.0764 39.9999 24.1659 40C24.2432 39.9995 24.32 39.9883 24.3943 39.9667L36.0612 36.6332C36.4187 36.5313 36.6656 36.205 36.6662 35.8332V4.16575C36.6655 3.79402 36.4187 3.4676 36.0611 3.36573ZM4.53867 31.5782L9.5388 29.0781C9.82076 28.9368 9.99881 28.6485 9.99881 28.3331V10.6509L24.9992 6.90082V34.8615L4.29195 31.6764C4.2528 31.6699 4.21327 31.6665 4.17358 31.6664C4.30038 31.6648 4.42515 31.6346 4.53867 31.5782Z" fill="#FF5722"/>
</g>
<defs>
<clipPath id="clip0_1_13579">
<rect width="40" height="40" fill="white"/>
</clipPath>
</defs>
</svg>
